<?xml version="1.0" standalone="no"?>
<!DOCTYPE svg PUBLIC "-//W3C//DTD SVG 20010904//EN"
 "http://www.w3.org/TR/2001/REC-SVG-20010904/DTD/svg10.dtd">
<svg version="1.0" xmlns="http://www.w3.org/2000/svg"
 width="1000.000000pt" height="1000.000000pt" viewBox="0 0 1000.000000 1000.000000"
 preserveAspectRatio="xMidYMid meet">
<metadata>
Created by potrace 1.16, written by Peter Selinger 2001-2019
</metadata>
<g transform="translate(0.000000,1000.000000) scale(0.100000,-0.100000)"
fill="#000000" stroke="none">
<path d="M0 5000 l0 -5000 5000 0 5000 0 0 5000 0 5000 -5000 0 -5000 0 0
-5000z m4990 3692 l96 -567 -26 -25 c-54 -55 -125 -102 -172 -115 -5 -2 -9 -3
-10 -5 -4 -3 -28 -7 -78 -14 -25 -4 -52 -9 -61 -12 -9 -2 -34 -6 -55 -9 -40
-4 -90 -12 -134 -20 -65 -13 -78 -15 -124 -20 -27 -3 -51 -7 -55 -9 -23 -15
-173 -23 -231 -14 -128 21 -184 63 -360 273 -36 43 -85 101 -110 130 -87 99
-96 110 -144 170 -27 33 -55 64 -63 68 -13 8 -99 -29 -195 -85 -27 -15 -48
-25 -48 -22 0 4 -6 2 -12 -4 -7 -5 -41 -24 -75 -42 -41 -20 -63 -37 -63 -49 0
-9 11 -59 24 -111 14 -52 27 -106 30 -120 2 -14 27 -120 55 -237 59 -244 64
-317 30 -410 -22 -59 -55 -109 -118 -175 -36 -38 -43 -40 -186 -53 -33 -3
-107 -9 -165 -15 -146 -14 -1704 -150 -1722 -150 -10 0 22 71 95 216 122 239
161 290 261 339 73 36 147 36 291 1 61 -15 117 -29 125 -31 8 -2 110 -26 225
-54 180 -44 237 -58 265 -66 74 -20 65 -25 180 90 l107 107 -12 56 c-7 32 -45
192 -85 357 -96 395 -100 418 -90 480 12 73 32 116 76 165 52 57 77 72 384
228 438 222 553 279 590 290 83 26 192 18 265 -20 34 -18 106 -93 210 -218 39
-46 88 -104 110 -130 22 -26 61 -71 87 -101 26 -30 59 -70 75 -90 15 -19 36
-43 46 -53 9 -10 29 -33 44 -52 25 -33 28 -34 77 -29 28 2 60 7 71 9 21 4 74
12 140 22 22 3 40 7 41 7 1 1 31 76 68 167 38 91 72 169 77 175 5 5 9 15 9 22
0 7 12 37 26 66 14 28 27 61 29 71 3 10 16 41 30 67 14 27 24 50 24 51 -5 7
25 77 30 72 3 -3 49 -261 101 -572z m670 -1504 c0 -7 9 -109 20 -227 11 -118
17 -217 14 -220 -3 -3 -116 -16 -250 -27 -135 -12 -247 -24 -249 -26 -2 -2 25
-327 60 -723 34 -396 60 -723 56 -727 -6 -6 -481 -51 -486 -46 -2 2 -31 327
-66 723 -34 396 -65 723 -68 726 -3 4 -116 -3 -251 -16 -135 -12 -248 -19
-251 -16 -8 8 -44 449 -37 456 5 5 1392 131 1471 134 23 1 37 -4 37 -11z
m-1796 -376 c10 -122 17 -225 14 -228 -3 -3 -192 -21 -419 -41 -228 -20 -415
-37 -417 -38 -3 -3 18 -264 23 -281 2 -7 26 -8 71 -3 38 3 105 9 149 13 44 3
185 15 314 27 128 11 236 18 239 15 9 -9 42 -410 34 -417 -4 -3 -178 -20 -387
-38 -209 -18 -381 -33 -381 -34 -4 -6 22 -267 28 -272 3 -3 191 10 418 30 226
20 414 34 417 31 8 -8 46 -447 39 -453 -5 -5 -1328 -124 -1333 -120 -4 4 -170
1912 -166 1916 4 6 1270 119 1308 117 l30 -1 19 -223z m-1804 66 c0 -2 38
-433 84 -958 46 -525 83 -956 83 -956 -1 -1 -112 -12 -247 -24 -236 -21 -245
-21 -258 -3 -7 10 -148 213 -314 450 -166 238 -303 432 -304 430 -2 -2 16
-213 39 -471 24 -257 40 -469 37 -471 -15 -9 -473 -46 -480 -38 -7 9 -173
1903 -167 1909 9 10 461 44 466 36 50 -76 665 -971 667 -969 1 1 -2 34 -6 72
-4 39 -11 108 -14 155 -4 47 -9 103 -11 125 -4 39 -8 83 -20 215 -3 36 -14
153 -24 260 -10 107 -17 197 -15 199 7 8 484 47 484 39z m4795 -713 c10 -124
15 -228 11 -232 -7 -7 -826 -82 -837 -77 -7 4 -44 452 -38 459 6 5 728 72 800
74 l46 1 18 -225z m2535 -943 c0 -4 -150 -228 -334 -497 l-334 -490 78 -85
c557 -611 759 -835 755 -838 -4 -4 -465 -47 -567 -53 l-46 -3 -272 318 c-149
175 -275 314 -279 310 -5 -5 5 -157 22 -337 16 -181 27 -330 25 -333 -7 -6
-478 -47 -484 -41 -5 5 -175 1910 -171 1914 8 7 481 43 487 36 4 -4 20 -160
35 -345 16 -186 31 -338 34 -338 3 1 106 167 229 370 203 336 226 370 250 371
15 0 140 11 277 23 300 28 295 28 295 18z m-2196 -232 c221 -56 369 -202 431
-425 24 -87 31 -302 12 -390 -40 -184 -126 -306 -268 -380 l-39 -20 141 -150
c78 -83 207 -219 287 -303 80 -84 143 -154 141 -156 -5 -5 -601 -57 -604 -54
-1 2 -114 131 -250 287 l-247 283 -35 -5 c-20 -4 -37 -8 -40 -10 -2 -3 8 -138
22 -302 15 -163 25 -298 23 -299 -9 -8 -484 -44 -489 -38 -8 10 -172 1900
-165 1910 3 5 27 9 53 11 26 1 185 15 353 30 383 36 567 39 674 11z m-1834
-111 c100 -12 236 -55 317 -101 80 -44 203 -168 241 -243 50 -100 62 -159 87
-440 13 -148 27 -297 30 -330 17 -197 17 -222 1 -305 -63 -307 -335 -512 -731
-550 -180 -17 -349 12 -505 87 -77 37 -109 60 -171 122 -136 136 -162 210
-194 556 -50 547 -51 569 -32 659 9 44 32 113 51 151 138 278 517 443 906 394z
m-1010 -98 c0 -16 -381 -1955 -384 -1959 -6 -6 -447 -44 -452 -39 -4 4 -221
517 -284 671 l-28 69 -10 -49 c-6 -27 -41 -203 -77 -391 l-67 -342 -37 -5
c-67 -10 -412 -38 -417 -33 -2 2 -164 417 -360 923 -196 505 -358 925 -361
932 -3 6 -1 12 3 13 5 0 16 2 24 3 8 2 53 6 100 10 134 11 209 17 290 26 52 5
78 4 86 -4 6 -6 91 -249 190 -539 98 -291 181 -522 183 -515 3 7 48 204 101
438 l95 425 65 6 c36 4 106 10 155 13 50 4 102 9 116 12 15 3 30 -1 36 -8 6
-7 81 -197 168 -423 151 -393 174 -450 175 -432 0 16 181 1133 185 1147 4 13
49 20 238 37 127 11 240 21 250 22 9 0 17 -3 17 -8z m-3744 -118 c108 -68 205
-82 419 -60 81 9 142 11 146 6 3 -5 18 -94 34 -198 15 -105 31 -195 36 -202 4
-6 22 -13 40 -14 72 -5 195 -16 224 -20 17 -2 80 -7 141 -10 l111 -7 36 -92
c20 -50 146 -365 281 -700 135 -334 246 -612 246 -617 0 -5 -40 -75 -90 -155
-49 -80 -90 -151 -90 -158 0 -6 65 -76 144 -155 l144 -144 58 33 c33 19 77 46
99 61 22 15 73 46 114 70 40 24 81 49 90 54 9 6 59 35 111 67 l95 56 203 17
203 17 117 -65 c64 -36 189 -101 277 -145 164 -82 210 -117 264 -197 56 -81
68 -144 87 -430 3 -55 7 -111 9 -125 2 -15 6 -75 10 -135 10 -174 14 -183 60
-186 11 0 27 -2 35 -4 14 -2 144 -24 185 -30 11 -2 51 -8 89 -15 38 -6 70 -9
71 -8 2 2 60 139 129 306 69 166 135 321 146 343 57 111 181 198 307 215 26 3
51 8 54 10 3 1 28 6 55 9 84 11 167 23 209 31 11 2 40 7 65 10 25 3 52 7 60 9
66 17 202 24 240 13 8 -3 37 -11 63 -18 26 -7 61 -25 78 -41 17 -16 37 -29 45
-29 8 0 14 -5 14 -11 0 -5 14 -23 31 -38 19 -18 32 -40 34 -62 3 -19 45 -274
95 -566 49 -293 90 -540 90 -548 0 -32 -77 33 -155 130 -22 28 -49 60 -60 71
-11 12 -31 36 -44 54 -13 17 -38 46 -55 63 -18 18 -47 52 -66 77 -19 25 -44
54 -55 65 -12 11 -37 40 -56 65 -19 25 -45 57 -59 71 -14 14 -35 38 -48 53
-12 15 -26 24 -31 22 -5 -3 -28 -8 -52 -10 -54 -6 -119 -16 -139 -21 -8 -2
-31 -7 -50 -10 -19 -3 -38 -9 -42 -13 -3 -4 -38 -83 -76 -177 -248 -604 -260
-629 -335 -682 -87 -62 -171 -74 -337 -47 -58 9 -114 17 -125 19 -21 3 -142
23 -185 30 -14 2 -56 9 -95 15 -38 6 -81 13 -95 15 -14 2 -54 9 -90 15 -36 5
-76 12 -90 15 -14 2 -56 9 -95 15 -95 14 -204 68 -249 124 -70 85 -72 93 -105
536 -17 223 -33 414 -36 425 -3 14 -43 40 -131 84 l-127 64 -41 -22 c-22 -12
-84 -48 -136 -80 -52 -33 -133 -83 -180 -111 -47 -28 -128 -78 -180 -110 -197
-122 -233 -137 -315 -135 -143 5 -162 19 -562 422 -404 406 -414 420 -415 555
0 43 6 89 15 109 7 19 110 189 227 379 l213 344 -76 146 -76 145 -123 11 c-68
6 -168 15 -223 19 -55 4 -120 9 -144 11 -24 2 -76 6 -115 9 -223 16 -260 24
-329 72 -48 34 -100 105 -121 166 -9 27 -23 92 -31 145 -21 134 -39 251 -80
512 -20 124 -38 245 -42 270 l-6 45 30 -41 c17 -22 52 -54 79 -71z m5652
-2868 c-3 -3 -9 2 -12 12 -6 14 -5 15 5 6 7 -7 10 -15 7 -18z"/>
<path d="M6755 4538 c-49 -4 -95 -10 -100 -12 -8 -3 -5 -70 7 -212 11 -114 21
-210 23 -212 2 -3 73 1 157 8 172 14 230 32 277 85 87 100 56 273 -59 331 -50
26 -134 29 -305 12z"/>
<path d="M5105 4426 c-108 -26 -194 -92 -215 -166 -14 -50 46 -722 70 -777 40
-93 195 -142 350 -113 64 12 156 53 188 83 60 56 63 80 38 357 -9 96 -21 236
-27 310 -12 153 -20 188 -56 231 -63 74 -215 107 -348 75z"/>
</g>
</svg>
